<svg width="1280" height="1024" viewBox="0 0 1280 1024" fill="none" xmlns="http://www.w3.org/2000/svg">
<rect width="1280" height="1024" fill="#12131B"/>
<path d="M541.128 340.815C544.312 341.493 546.87 343.085 548.801 345.591C550.732 348.044 551.698 350.862 551.698 354.046C551.698 358.639 550.08 362.293 546.844 365.007C543.66 367.669 539.197 369 533.456 369H507.854V314.039H532.595C538.179 314.039 542.538 315.317 545.669 317.875C548.853 320.433 550.445 323.904 550.445 328.288C550.445 331.524 549.584 334.212 547.862 336.352C546.191 338.492 543.947 339.98 541.128 340.815ZM521.242 336.274H530.011C532.203 336.274 533.873 335.804 535.022 334.864C536.222 333.873 536.822 332.437 536.822 330.558C536.822 328.679 536.222 327.244 535.022 326.252C533.873 325.261 532.203 324.765 530.011 324.765H521.242V336.274ZM531.107 358.196C533.351 358.196 535.074 357.7 536.274 356.708C537.527 355.664 538.153 354.177 538.153 352.245C538.153 350.314 537.501 348.801 536.196 347.704C534.943 346.608 533.195 346.06 530.95 346.06H521.242V358.196H531.107ZM556.801 347.078C556.801 342.589 557.636 338.649 559.306 335.256C561.029 331.863 563.351 329.254 566.274 327.427C569.197 325.6 572.46 324.686 576.061 324.686C579.14 324.686 581.829 325.313 584.125 326.565C586.474 327.818 588.275 329.462 589.527 331.498V325.313H602.915V369H589.527V362.815C588.222 364.85 586.396 366.495 584.047 367.747C581.75 369 579.062 369.626 575.983 369.626C572.433 369.626 569.197 368.713 566.274 366.886C563.351 365.007 561.029 362.371 559.306 358.979C557.636 355.534 556.801 351.567 556.801 347.078ZM589.527 347.156C589.527 343.816 588.588 341.18 586.709 339.249C584.882 337.318 582.638 336.352 579.976 336.352C577.314 336.352 575.043 337.318 573.164 339.249C571.337 341.128 570.424 343.738 570.424 347.078C570.424 350.419 571.337 353.081 573.164 355.064C575.043 356.995 577.314 357.961 579.976 357.961C582.638 357.961 584.882 356.995 586.709 355.064C588.588 353.133 589.527 350.497 589.527 347.156ZM625.989 332.594C627.555 330.193 629.512 328.314 631.861 326.957C634.21 325.548 636.819 324.843 639.69 324.843V339.014H636.01C632.67 339.014 630.165 339.745 628.494 341.206C626.824 342.615 625.989 345.121 625.989 348.722V369H612.601V325.313H625.989V332.594ZM659.477 331.498C660.73 329.462 662.531 327.818 664.88 326.565C667.228 325.313 669.916 324.686 672.944 324.686C676.545 324.686 679.807 325.6 682.73 327.427C685.653 329.254 687.95 331.863 689.62 335.256C691.342 338.649 692.204 342.589 692.204 347.078C692.204 351.567 691.342 355.534 689.62 358.979C687.95 362.371 685.653 365.007 682.73 366.886C679.807 368.713 676.545 369.626 672.944 369.626C669.864 369.626 667.176 369.026 664.88 367.826C662.583 366.573 660.782 364.929 659.477 362.893V369H646.089V311.064H659.477V331.498ZM678.581 347.078C678.581 343.738 677.641 341.128 675.762 339.249C673.935 337.318 671.665 336.352 668.951 336.352C666.289 336.352 664.018 337.318 662.139 339.249C660.312 341.18 659.399 343.816 659.399 347.156C659.399 350.497 660.312 353.133 662.139 355.064C664.018 356.995 666.289 357.961 668.951 357.961C671.613 357.961 673.883 356.995 675.762 355.064C677.641 353.081 678.581 350.419 678.581 347.078ZM740.409 346.452C740.409 347.704 740.331 349.009 740.174 350.366H709.875C710.084 353.081 710.945 355.168 712.459 356.63C714.025 358.039 715.93 358.744 718.174 358.744C721.515 358.744 723.837 357.334 725.142 354.516H739.391C738.661 357.387 737.33 359.97 735.398 362.267C733.519 364.563 731.145 366.364 728.274 367.669C725.403 368.974 722.193 369.626 718.644 369.626C714.364 369.626 710.554 368.713 707.213 366.886C703.873 365.059 701.263 362.45 699.384 359.057C697.505 355.664 696.565 351.697 696.565 347.156C696.565 342.615 697.479 338.649 699.306 335.256C701.185 331.863 703.794 329.254 707.135 327.427C710.475 325.6 714.312 324.686 718.644 324.686C722.872 324.686 726.63 325.574 729.918 327.348C733.206 329.123 735.764 331.654 737.591 334.943C739.47 338.231 740.409 342.067 740.409 346.452ZM726.708 342.929C726.708 340.632 725.925 338.805 724.359 337.448C722.793 336.091 720.836 335.413 718.487 335.413C716.243 335.413 714.338 336.065 712.772 337.37C711.258 338.675 710.319 340.528 709.953 342.929H726.708ZM760.86 332.594C762.426 330.193 764.383 328.314 766.732 326.957C769.081 325.548 771.69 324.843 774.561 324.843V339.014H770.881C767.541 339.014 765.036 339.745 763.365 341.206C761.695 342.615 760.86 345.121 760.86 348.722V369H747.472V325.313H760.86V332.594Z" fill="url(#paint0_linear_1_150)"/>
<rect x="721" y="356.066" width="56" height="26.4946" rx="1.36336" fill="white"/>
<path d="M739.302 366.999C739.302 367.876 739.1 368.682 738.698 369.416C738.295 370.135 737.676 370.718 736.842 371.164C736.007 371.61 734.972 371.833 733.735 371.833H731.447V377.27H727.757V362.122H733.735C734.943 362.122 735.964 362.331 736.799 362.748C737.633 363.165 738.259 363.74 738.676 364.474C739.093 365.208 739.302 366.049 739.302 366.999ZM733.454 368.898C734.159 368.898 734.684 368.732 735.029 368.402C735.375 368.071 735.547 367.603 735.547 366.999C735.547 366.395 735.375 365.927 735.029 365.596C734.684 365.265 734.159 365.1 733.454 365.1H731.447V368.898H733.454ZM748.948 377.27L745.798 371.552H744.913V377.27H741.223V362.122H747.416C748.61 362.122 749.624 362.331 750.459 362.748C751.307 363.165 751.94 363.74 752.358 364.474C752.775 365.193 752.983 365.999 752.983 366.891C752.983 367.898 752.696 368.797 752.12 369.588C751.559 370.38 750.725 370.941 749.617 371.271L753.113 377.27H748.948ZM744.913 368.941H747.2C747.876 368.941 748.38 368.776 748.711 368.445C749.056 368.114 749.229 367.646 749.229 367.042C749.229 366.467 749.056 366.013 748.711 365.683C748.38 365.352 747.876 365.186 747.2 365.186H744.913V368.941ZM762.464 377.421C761.04 377.421 759.73 377.091 758.536 376.429C757.357 375.767 756.415 374.846 755.71 373.667C755.019 372.473 754.674 371.135 754.674 369.653C754.674 368.171 755.019 366.841 755.71 365.661C756.415 364.481 757.357 363.561 758.536 362.899C759.73 362.237 761.04 361.906 762.464 361.906C763.888 361.906 765.19 362.237 766.37 362.899C767.564 363.561 768.499 364.481 769.175 365.661C769.865 366.841 770.211 368.171 770.211 369.653C770.211 371.135 769.865 372.473 769.175 373.667C768.484 374.846 767.549 375.767 766.37 376.429C765.19 377.091 763.888 377.421 762.464 377.421ZM762.464 374.055C763.672 374.055 764.636 373.652 765.355 372.847C766.089 372.041 766.456 370.977 766.456 369.653C766.456 368.315 766.089 367.251 765.355 366.459C764.636 365.654 763.672 365.251 762.464 365.251C761.241 365.251 760.263 365.647 759.529 366.438C758.81 367.229 758.45 368.301 758.45 369.653C758.45 370.991 758.81 372.063 759.529 372.868C760.263 373.66 761.241 374.055 762.464 374.055Z" fill="#12131B"/>
<rect x="424" y="523.066" width="432" height="46" rx="4" fill="#1B1C29"/>
<path d="M442.704 540.914C443.92 540.914 444.971 541.143 445.856 541.602C446.752 542.05 447.435 542.695 447.904 543.538C448.384 544.381 448.624 545.373 448.624 546.514C448.624 547.655 448.384 548.647 447.904 549.49C447.435 550.322 446.752 550.962 445.856 551.41C444.971 551.847 443.92 552.066 442.704 552.066H439.232V540.914H442.704ZM442.704 550.866C444.144 550.866 445.243 550.487 446 549.73C446.757 548.962 447.136 547.89 447.136 546.514C447.136 545.127 446.752 544.045 445.984 543.266C445.227 542.487 444.133 542.098 442.704 542.098H440.688V550.866H442.704ZM451.297 541.874C451.019 541.874 450.785 541.778 450.593 541.586C450.401 541.394 450.305 541.159 450.305 540.882C450.305 540.605 450.401 540.37 450.593 540.178C450.785 539.986 451.019 539.89 451.297 539.89C451.563 539.89 451.787 539.986 451.969 540.178C452.161 540.37 452.257 540.605 452.257 540.882C452.257 541.159 452.161 541.394 451.969 541.586C451.787 541.778 451.563 541.874 451.297 541.874ZM452.001 543.298V552.066H450.545V543.298H452.001ZM458.098 543.154C458.855 543.154 459.517 543.319 460.082 543.65C460.658 543.981 461.085 544.397 461.362 544.898V543.298H462.834V552.258C462.834 553.058 462.663 553.767 462.322 554.386C461.981 555.015 461.49 555.506 460.85 555.858C460.221 556.21 459.485 556.386 458.642 556.386C457.49 556.386 456.53 556.114 455.762 555.57C454.994 555.026 454.541 554.285 454.402 553.346H455.842C456.002 553.879 456.333 554.306 456.834 554.626C457.335 554.957 457.938 555.122 458.642 555.122C459.442 555.122 460.093 554.871 460.594 554.37C461.106 553.869 461.362 553.165 461.362 552.258V550.418C461.074 550.93 460.647 551.357 460.082 551.698C459.517 552.039 458.855 552.21 458.098 552.21C457.319 552.21 456.61 552.018 455.97 551.634C455.341 551.25 454.845 550.711 454.482 550.018C454.119 549.325 453.938 548.535 453.938 547.65C453.938 546.754 454.119 545.97 454.482 545.298C454.845 544.615 455.341 544.087 455.97 543.714C456.61 543.341 457.319 543.154 458.098 543.154ZM461.362 547.666C461.362 547.005 461.229 546.429 460.962 545.938C460.695 545.447 460.333 545.074 459.874 544.818C459.426 544.551 458.93 544.418 458.386 544.418C457.842 544.418 457.346 544.546 456.898 544.802C456.45 545.058 456.093 545.431 455.826 545.922C455.559 546.413 455.426 546.989 455.426 547.65C455.426 548.322 455.559 548.909 455.826 549.41C456.093 549.901 456.45 550.279 456.898 550.546C457.346 550.802 457.842 550.93 458.386 550.93C458.93 550.93 459.426 550.802 459.874 550.546C460.333 550.279 460.695 549.901 460.962 549.41C461.229 548.909 461.362 548.327 461.362 547.666ZM466.047 541.874C465.769 541.874 465.535 541.778 465.343 541.586C465.151 541.394 465.055 541.159 465.055 540.882C465.055 540.605 465.151 540.37 465.343 540.178C465.535 539.986 465.769 539.89 466.047 539.89C466.313 539.89 466.537 539.986 466.719 540.178C466.911 540.37 467.007 540.605 467.007 540.882C467.007 541.159 466.911 541.394 466.719 541.586C466.537 541.778 466.313 541.874 466.047 541.874ZM466.751 543.298V552.066H465.295V543.298H466.751ZM471.008 544.498V549.666C471.008 550.093 471.099 550.397 471.28 550.578C471.461 550.749 471.776 550.834 472.224 550.834H473.296V552.066H471.984C471.173 552.066 470.565 551.879 470.16 551.506C469.755 551.133 469.552 550.519 469.552 549.666V544.498H468.416V543.298H469.552V541.09H471.008V543.298H473.296V544.498H471.008ZM483.06 547.346C483.06 547.623 483.044 547.917 483.012 548.226H476.004C476.057 549.09 476.351 549.767 476.884 550.258C477.428 550.738 478.084 550.978 478.852 550.978C479.481 550.978 480.004 550.834 480.42 550.546C480.847 550.247 481.145 549.853 481.316 549.362H482.884C482.649 550.205 482.18 550.893 481.476 551.426C480.772 551.949 479.897 552.21 478.852 552.21C478.02 552.21 477.273 552.023 476.612 551.65C475.961 551.277 475.449 550.749 475.076 550.066C474.703 549.373 474.516 548.573 474.516 547.666C474.516 546.759 474.697 545.965 475.06 545.282C475.423 544.599 475.929 544.077 476.58 543.714C477.241 543.341 477.999 543.154 478.852 543.154C479.684 543.154 480.42 543.335 481.06 543.698C481.7 544.061 482.191 544.562 482.532 545.202C482.884 545.831 483.06 546.546 483.06 547.346ZM481.556 547.042C481.556 546.487 481.433 546.013 481.188 545.618C480.943 545.213 480.607 544.909 480.18 544.706C479.764 544.493 479.3 544.386 478.788 544.386C478.052 544.386 477.423 544.621 476.9 545.09C476.388 545.559 476.095 546.21 476.02 547.042H481.556ZM492.352 552.21C491.68 552.21 491.077 552.098 490.544 551.874C490.01 551.639 489.589 551.319 489.28 550.914C488.97 550.498 488.8 550.023 488.768 549.49H490.272C490.314 549.927 490.517 550.285 490.88 550.562C491.253 550.839 491.738 550.978 492.336 550.978C492.89 550.978 493.328 550.855 493.648 550.61C493.968 550.365 494.128 550.055 494.128 549.682C494.128 549.298 493.957 549.015 493.616 548.834C493.274 548.642 492.746 548.455 492.032 548.274C491.381 548.103 490.848 547.933 490.432 547.762C490.026 547.581 489.674 547.319 489.376 546.978C489.088 546.626 488.944 546.167 488.944 545.602C488.944 545.154 489.077 544.743 489.344 544.37C489.61 543.997 489.989 543.703 490.48 543.49C490.97 543.266 491.53 543.154 492.16 543.154C493.13 543.154 493.914 543.399 494.512 543.89C495.109 544.381 495.429 545.053 495.472 545.906H494.016C493.984 545.447 493.797 545.079 493.456 544.802C493.125 544.525 492.677 544.386 492.112 544.386C491.589 544.386 491.173 544.498 490.864 544.722C490.554 544.946 490.4 545.239 490.4 545.602C490.4 545.89 490.49 546.13 490.672 546.322C490.864 546.503 491.098 546.653 491.376 546.77C491.664 546.877 492.058 546.999 492.56 547.138C493.189 547.309 493.701 547.479 494.096 547.65C494.49 547.81 494.826 548.055 495.104 548.386C495.392 548.717 495.541 549.149 495.552 549.682C495.552 550.162 495.418 550.594 495.152 550.978C494.885 551.362 494.506 551.666 494.016 551.89C493.536 552.103 492.981 552.21 492.352 552.21ZM505.607 547.346C505.607 547.623 505.591 547.917 505.559 548.226H498.551C498.604 549.09 498.898 549.767 499.431 550.258C499.975 550.738 500.631 550.978 501.399 550.978C502.028 550.978 502.551 550.834 502.967 550.546C503.394 550.247 503.692 549.853 503.863 549.362H505.431C505.196 550.205 504.727 550.893 504.023 551.426C503.319 551.949 502.444 552.21 501.399 552.21C500.567 552.21 499.82 552.023 499.159 551.65C498.508 551.277 497.996 550.749 497.623 550.066C497.25 549.373 497.063 548.573 497.063 547.666C497.063 546.759 497.244 545.965 497.607 545.282C497.97 544.599 498.476 544.077 499.127 543.714C499.788 543.341 500.546 543.154 501.399 543.154C502.231 543.154 502.967 543.335 503.607 543.698C504.247 544.061 504.738 544.562 505.079 545.202C505.431 545.831 505.607 546.546 505.607 547.346ZM504.103 547.042C504.103 546.487 503.98 546.013 503.735 545.618C503.49 545.213 503.154 544.909 502.727 544.706C502.311 544.493 501.847 544.386 501.335 544.386C500.599 544.386 499.97 544.621 499.447 545.09C498.935 545.559 498.642 546.21 498.567 547.042H504.103ZM515.305 543.298V552.066H513.849V550.77C513.572 551.218 513.182 551.57 512.681 551.826C512.19 552.071 511.646 552.194 511.049 552.194C510.366 552.194 509.753 552.055 509.209 551.778C508.665 551.49 508.233 551.063 507.913 550.498C507.604 549.933 507.449 549.245 507.449 548.434V543.298H508.889V548.242C508.889 549.106 509.108 549.773 509.545 550.242C509.982 550.701 510.58 550.93 511.337 550.93C512.116 550.93 512.729 550.69 513.177 550.21C513.625 549.73 513.849 549.031 513.849 548.114V543.298H515.305ZM530.029 547.346C530.029 547.623 530.013 547.917 529.981 548.226H522.973C523.026 549.09 523.32 549.767 523.853 550.258C524.397 550.738 525.053 550.978 525.821 550.978C526.45 550.978 526.973 550.834 527.389 550.546C527.816 550.247 528.114 549.853 528.285 549.362H529.853C529.618 550.205 529.149 550.893 528.445 551.426C527.741 551.949 526.866 552.21 525.821 552.21C524.989 552.21 524.242 552.023 523.581 551.65C522.93 551.277 522.418 550.749 522.045 550.066C521.672 549.373 521.485 548.573 521.485 547.666C521.485 546.759 521.666 545.965 522.029 545.282C522.392 544.599 522.898 544.077 523.549 543.714C524.21 543.341 524.968 543.154 525.821 543.154C526.653 543.154 527.389 543.335 528.029 543.698C528.669 544.061 529.16 544.562 529.501 545.202C529.853 545.831 530.029 546.546 530.029 547.346ZM528.525 547.042C528.525 546.487 528.402 546.013 528.157 545.618C527.912 545.213 527.576 544.909 527.149 544.706C526.733 544.493 526.269 544.386 525.757 544.386C525.021 544.386 524.392 544.621 523.869 545.09C523.357 545.559 523.064 546.21 522.989 547.042H528.525ZM542.495 543.138C543.177 543.138 543.785 543.282 544.319 543.57C544.852 543.847 545.273 544.269 545.583 544.834C545.892 545.399 546.047 546.087 546.047 546.898V552.066H544.607V547.106C544.607 546.231 544.388 545.565 543.951 545.106C543.524 544.637 542.943 544.402 542.207 544.402C541.449 544.402 540.847 544.647 540.399 545.138C539.951 545.618 539.727 546.317 539.727 547.234V552.066H538.287V547.106C538.287 546.231 538.068 545.565 537.631 545.106C537.204 544.637 536.623 544.402 535.887 544.402C535.129 544.402 534.527 544.647 534.079 545.138C533.631 545.618 533.407 546.317 533.407 547.234V552.066H531.951V543.298H533.407V544.562C533.695 544.103 534.079 543.751 534.559 543.506C535.049 543.261 535.588 543.138 536.175 543.138C536.911 543.138 537.561 543.303 538.127 543.634C538.692 543.965 539.113 544.45 539.391 545.09C539.636 544.471 540.041 543.991 540.607 543.65C541.172 543.309 541.801 543.138 542.495 543.138ZM547.891 547.65C547.891 546.754 548.072 545.97 548.435 545.298C548.798 544.615 549.294 544.087 549.923 543.714C550.563 543.341 551.272 543.154 552.051 543.154C552.819 543.154 553.486 543.319 554.051 543.65C554.616 543.981 555.038 544.397 555.315 544.898V543.298H556.787V552.066H555.315V550.434C555.027 550.946 554.595 551.373 554.019 551.714C553.454 552.045 552.792 552.21 552.035 552.21C551.256 552.21 550.552 552.018 549.923 551.634C549.294 551.25 548.798 550.711 548.435 550.018C548.072 549.325 547.891 548.535 547.891 547.65ZM555.315 547.666C555.315 547.005 555.182 546.429 554.915 545.938C554.648 545.447 554.286 545.074 553.827 544.818C553.379 544.551 552.883 544.418 552.339 544.418C551.795 544.418 551.299 544.546 550.851 544.802C550.403 545.058 550.046 545.431 549.779 545.922C549.512 546.413 549.379 546.989 549.379 547.65C549.379 548.322 549.512 548.909 549.779 549.41C550.046 549.901 550.403 550.279 550.851 550.546C551.299 550.802 551.795 550.93 552.339 550.93C552.883 550.93 553.379 550.802 553.827 550.546C554.286 550.279 554.648 549.901 554.915 549.41C555.182 548.909 555.315 548.327 555.315 547.666ZM560 541.874C559.722 541.874 559.488 541.778 559.296 541.586C559.104 541.394 559.008 541.159 559.008 540.882C559.008 540.605 559.104 540.37 559.296 540.178C559.488 539.986 559.722 539.89 560 539.89C560.266 539.89 560.49 539.986 560.672 540.178C560.864 540.37 560.96 540.605 560.96 540.882C560.96 541.159 560.864 541.394 560.672 541.586C560.49 541.778 560.266 541.874 560 541.874ZM560.704 543.298V552.066H559.248V543.298H560.704ZM564.641 540.226V552.066H563.185V540.226H564.641ZM567.587 552.162C567.309 552.162 567.075 552.066 566.883 551.874C566.691 551.682 566.595 551.447 566.595 551.17C566.595 550.893 566.691 550.658 566.883 550.466C567.075 550.274 567.309 550.178 567.587 550.178C567.853 550.178 568.077 550.274 568.259 550.466C568.451 550.658 568.547 550.893 568.547 551.17C568.547 551.447 568.451 551.682 568.259 551.874C568.077 552.066 567.853 552.162 567.587 552.162ZM570.946 552.162C570.669 552.162 570.434 552.066 570.242 551.874C570.05 551.682 569.954 551.447 569.954 551.17C569.954 550.893 570.05 550.658 570.242 550.466C570.434 550.274 570.669 550.178 570.946 550.178C571.213 550.178 571.437 550.274 571.618 550.466C571.81 550.658 571.906 550.893 571.906 551.17C571.906 551.447 571.81 551.682 571.618 551.874C571.437 552.066 571.213 552.162 570.946 552.162ZM574.305 552.162C574.028 552.162 573.793 552.066 573.601 551.874C573.409 551.682 573.313 551.447 573.313 551.17C573.313 550.893 573.409 550.658 573.601 550.466C573.793 550.274 574.028 550.178 574.305 550.178C574.572 550.178 574.796 550.274 574.977 550.466C575.169 550.658 575.265 550.893 575.265 551.17C575.265 551.447 575.169 551.682 574.977 551.874C574.796 552.066 574.572 552.162 574.305 552.162Z" fill="#C6C6C6"/>
<rect x="424" y="455" width="432" height="46" rx="4" fill="#1B1C29"/>
<path d="M448 484H446.544L440.688 475.12V484H439.232V472.832H440.688L446.544 481.696V472.832H448V484ZM454.306 484.144C453.485 484.144 452.738 483.957 452.066 483.584C451.405 483.211 450.882 482.683 450.498 482C450.125 481.307 449.938 480.507 449.938 479.6C449.938 478.704 450.13 477.915 450.514 477.232C450.909 476.539 451.442 476.011 452.114 475.648C452.786 475.275 453.538 475.088 454.37 475.088C455.202 475.088 455.954 475.275 456.626 475.648C457.298 476.011 457.826 476.533 458.21 477.216C458.605 477.899 458.802 478.693 458.802 479.6C458.802 480.507 458.599 481.307 458.194 482C457.799 482.683 457.261 483.211 456.578 483.584C455.895 483.957 455.138 484.144 454.306 484.144ZM454.306 482.864C454.829 482.864 455.319 482.741 455.778 482.496C456.237 482.251 456.605 481.883 456.882 481.392C457.17 480.901 457.314 480.304 457.314 479.6C457.314 478.896 457.175 478.299 456.898 477.808C456.621 477.317 456.258 476.955 455.81 476.72C455.362 476.475 454.877 476.352 454.354 476.352C453.821 476.352 453.33 476.475 452.882 476.72C452.445 476.955 452.093 477.317 451.826 477.808C451.559 478.299 451.426 478.896 451.426 479.6C451.426 480.315 451.554 480.917 451.81 481.408C452.077 481.899 452.429 482.267 452.866 482.512C453.303 482.747 453.783 482.864 454.306 482.864ZM471.26 475.072C471.943 475.072 472.551 475.216 473.084 475.504C473.618 475.781 474.039 476.203 474.348 476.768C474.658 477.333 474.812 478.021 474.812 478.832V484H473.372V479.04C473.372 478.165 473.154 477.499 472.716 477.04C472.29 476.571 471.708 476.336 470.972 476.336C470.215 476.336 469.612 476.581 469.164 477.072C468.716 477.552 468.492 478.251 468.492 479.168V484H467.052V479.04C467.052 478.165 466.834 477.499 466.396 477.04C465.97 476.571 465.388 476.336 464.652 476.336C463.895 476.336 463.292 476.581 462.844 477.072C462.396 477.552 462.172 478.251 462.172 479.168V484H460.716V475.232H462.172V476.496C462.46 476.037 462.844 475.685 463.324 475.44C463.815 475.195 464.354 475.072 464.94 475.072C465.676 475.072 466.327 475.237 466.892 475.568C467.458 475.899 467.879 476.384 468.156 477.024C468.402 476.405 468.807 475.925 469.372 475.584C469.938 475.243 470.567 475.072 471.26 475.072ZM485.201 479.28C485.201 479.557 485.185 479.851 485.153 480.16H478.145C478.198 481.024 478.491 481.701 479.025 482.192C479.569 482.672 480.225 482.912 480.993 482.912C481.622 482.912 482.145 482.768 482.561 482.48C482.987 482.181 483.286 481.787 483.457 481.296H485.025C484.79 482.139 484.321 482.827 483.617 483.36C482.913 483.883 482.038 484.144 480.993 484.144C480.161 484.144 479.414 483.957 478.753 483.584C478.102 483.211 477.59 482.683 477.217 482C476.843 481.307 476.657 480.507 476.657 479.6C476.657 478.693 476.838 477.899 477.201 477.216C477.563 476.533 478.07 476.011 478.721 475.648C479.382 475.275 480.139 475.088 480.993 475.088C481.825 475.088 482.561 475.269 483.201 475.632C483.841 475.995 484.331 476.496 484.673 477.136C485.025 477.765 485.201 478.48 485.201 479.28ZM483.697 478.976C483.697 478.421 483.574 477.947 483.329 477.552C483.083 477.147 482.747 476.843 482.321 476.64C481.905 476.427 481.441 476.32 480.929 476.32C480.193 476.32 479.563 476.555 479.041 477.024C478.529 477.493 478.235 478.144 478.161 478.976H483.697ZM490.844 479.584C490.844 478.688 491.026 477.904 491.388 477.232C491.751 476.549 492.247 476.021 492.876 475.648C493.516 475.275 494.231 475.088 495.02 475.088C495.703 475.088 496.338 475.248 496.924 475.568C497.511 475.877 497.959 476.288 498.268 476.8V472.16H499.74V484H498.268V482.352C497.98 482.875 497.554 483.307 496.988 483.648C496.423 483.979 495.762 484.144 495.004 484.144C494.226 484.144 493.516 483.952 492.876 483.568C492.247 483.184 491.751 482.645 491.388 481.952C491.026 481.259 490.844 480.469 490.844 479.584ZM498.268 479.6C498.268 478.939 498.135 478.363 497.868 477.872C497.602 477.381 497.239 477.008 496.78 476.752C496.332 476.485 495.836 476.352 495.292 476.352C494.748 476.352 494.252 476.48 493.804 476.736C493.356 476.992 492.999 477.365 492.732 477.856C492.466 478.347 492.332 478.923 492.332 479.584C492.332 480.256 492.466 480.843 492.732 481.344C492.999 481.835 493.356 482.213 493.804 482.48C494.252 482.736 494.748 482.864 495.292 482.864C495.836 482.864 496.332 482.736 496.78 482.48C497.239 482.213 497.602 481.835 497.868 481.344C498.135 480.843 498.268 480.261 498.268 479.6ZM501.657 479.584C501.657 478.688 501.838 477.904 502.201 477.232C502.563 476.549 503.059 476.021 503.689 475.648C504.329 475.275 505.038 475.088 505.817 475.088C506.585 475.088 507.251 475.253 507.817 475.584C508.382 475.915 508.803 476.331 509.081 476.832V475.232H510.553V484H509.081V482.368C508.793 482.88 508.361 483.307 507.785 483.648C507.219 483.979 506.558 484.144 505.801 484.144C505.022 484.144 504.318 483.952 503.689 483.568C503.059 483.184 502.563 482.645 502.201 481.952C501.838 481.259 501.657 480.469 501.657 479.584ZM509.081 479.6C509.081 478.939 508.947 478.363 508.681 477.872C508.414 477.381 508.051 477.008 507.593 476.752C507.145 476.485 506.649 476.352 506.105 476.352C505.561 476.352 505.065 476.48 504.617 476.736C504.169 476.992 503.811 477.365 503.545 477.856C503.278 478.347 503.145 478.923 503.145 479.584C503.145 480.256 503.278 480.843 503.545 481.344C503.811 481.835 504.169 482.213 504.617 482.48C505.065 482.736 505.561 482.864 506.105 482.864C506.649 482.864 507.145 482.736 507.593 482.48C508.051 482.213 508.414 481.835 508.681 481.344C508.947 480.843 509.081 480.261 509.081 479.6ZM518.735 476.864C519.034 476.341 519.471 475.915 520.047 475.584C520.623 475.253 521.279 475.088 522.015 475.088C522.804 475.088 523.514 475.275 524.143 475.648C524.772 476.021 525.268 476.549 525.631 477.232C525.994 477.904 526.175 478.688 526.175 479.584C526.175 480.469 525.994 481.259 525.631 481.952C525.268 482.645 524.767 483.184 524.127 483.568C523.498 483.952 522.794 484.144 522.015 484.144C521.258 484.144 520.591 483.979 520.015 483.648C519.45 483.317 519.023 482.896 518.735 482.384V484H517.279V472.16H518.735V476.864ZM524.687 479.584C524.687 478.923 524.554 478.347 524.287 477.856C524.02 477.365 523.658 476.992 523.199 476.736C522.751 476.48 522.255 476.352 521.711 476.352C521.178 476.352 520.682 476.485 520.223 476.752C519.775 477.008 519.412 477.387 519.135 477.888C518.868 478.379 518.735 478.949 518.735 479.6C518.735 480.261 518.868 480.843 519.135 481.344C519.412 481.835 519.775 482.213 520.223 482.48C520.682 482.736 521.178 482.864 521.711 482.864C522.255 482.864 522.751 482.736 523.199 482.48C523.658 482.213 524.02 481.835 524.287 481.344C524.554 480.843 524.687 480.256 524.687 479.584ZM527.547 479.584C527.547 478.688 527.729 477.904 528.091 477.232C528.454 476.549 528.95 476.021 529.579 475.648C530.219 475.275 530.929 475.088 531.707 475.088C532.475 475.088 533.142 475.253 533.707 475.584C534.273 475.915 534.694 476.331 534.971 476.832V475.232H536.443V484H534.971V482.368C534.683 482.88 534.251 483.307 533.675 483.648C533.11 483.979 532.449 484.144 531.691 484.144C530.913 484.144 530.209 483.952 529.579 483.568C528.95 483.184 528.454 482.645 528.091 481.952C527.729 481.259 527.547 480.469 527.547 479.584ZM534.971 479.6C534.971 478.939 534.838 478.363 534.571 477.872C534.305 477.381 533.942 477.008 533.483 476.752C533.035 476.485 532.539 476.352 531.995 476.352C531.451 476.352 530.955 476.48 530.507 476.736C530.059 476.992 529.702 477.365 529.435 477.856C529.169 478.347 529.035 478.923 529.035 479.584C529.035 480.256 529.169 480.843 529.435 481.344C529.702 481.835 530.059 482.213 530.507 482.48C530.955 482.736 531.451 482.864 531.995 482.864C532.539 482.864 533.035 482.736 533.483 482.48C533.942 482.213 534.305 481.835 534.571 481.344C534.838 480.843 534.971 480.261 534.971 479.6ZM540.36 476.656C540.616 476.155 540.979 475.765 541.448 475.488C541.928 475.211 542.509 475.072 543.192 475.072V476.576H542.808C541.176 476.576 540.36 477.461 540.36 479.232V484H538.904V475.232H540.36V476.656ZM546.329 476.864C546.627 476.341 547.065 475.915 547.641 475.584C548.217 475.253 548.873 475.088 549.609 475.088C550.398 475.088 551.107 475.275 551.737 475.648C552.366 476.021 552.862 476.549 553.225 477.232C553.587 477.904 553.769 478.688 553.769 479.584C553.769 480.469 553.587 481.259 553.225 481.952C552.862 482.645 552.361 483.184 551.721 483.568C551.091 483.952 550.387 484.144 549.609 484.144C548.851 484.144 548.185 483.979 547.609 483.648C547.043 483.317 546.617 482.896 546.329 482.384V484H544.873V472.16H546.329V476.864ZM552.281 479.584C552.281 478.923 552.147 478.347 551.881 477.856C551.614 477.365 551.251 476.992 550.793 476.736C550.345 476.48 549.849 476.352 549.305 476.352C548.771 476.352 548.275 476.485 547.817 476.752C547.369 477.008 547.006 477.387 546.729 477.888C546.462 478.379 546.329 478.949 546.329 479.6C546.329 480.261 546.462 480.843 546.729 481.344C547.006 481.835 547.369 482.213 547.817 482.48C548.275 482.736 548.771 482.864 549.305 482.864C549.849 482.864 550.345 482.736 550.793 482.48C551.251 482.213 551.614 481.835 551.881 481.344C552.147 480.843 552.281 480.256 552.281 479.584ZM563.685 479.28C563.685 479.557 563.669 479.851 563.637 480.16H556.629C556.682 481.024 556.976 481.701 557.509 482.192C558.053 482.672 558.709 482.912 559.477 482.912C560.106 482.912 560.629 482.768 561.045 482.48C561.472 482.181 561.77 481.787 561.941 481.296H563.509C563.274 482.139 562.805 482.827 562.101 483.36C561.397 483.883 560.522 484.144 559.477 484.144C558.645 484.144 557.898 483.957 557.237 483.584C556.586 483.211 556.074 482.683 555.701 482C555.328 481.307 555.141 480.507 555.141 479.6C555.141 478.693 555.322 477.899 555.685 477.216C556.048 476.533 556.554 476.011 557.205 475.648C557.866 475.275 558.624 475.088 559.477 475.088C560.309 475.088 561.045 475.269 561.685 475.632C562.325 475.995 562.816 476.496 563.157 477.136C563.509 477.765 563.685 478.48 563.685 479.28ZM562.181 478.976C562.181 478.421 562.058 477.947 561.813 477.552C561.568 477.147 561.232 476.843 560.805 476.64C560.389 476.427 559.925 476.32 559.413 476.32C558.677 476.32 558.048 476.555 557.525 477.024C557.013 477.493 556.72 478.144 556.645 478.976H562.181ZM565.063 479.584C565.063 478.688 565.244 477.904 565.607 477.232C565.97 476.549 566.466 476.021 567.095 475.648C567.735 475.275 568.444 475.088 569.223 475.088C569.991 475.088 570.658 475.253 571.223 475.584C571.788 475.915 572.21 476.331 572.487 476.832V475.232H573.959V484H572.487V482.368C572.199 482.88 571.767 483.307 571.191 483.648C570.626 483.979 569.964 484.144 569.207 484.144C568.428 484.144 567.724 483.952 567.095 483.568C566.466 483.184 565.97 482.645 565.607 481.952C565.244 481.259 565.063 480.469 565.063 479.584ZM572.487 479.6C572.487 478.939 572.354 478.363 572.087 477.872C571.82 477.381 571.458 477.008 570.999 476.752C570.551 476.485 570.055 476.352 569.511 476.352C568.967 476.352 568.471 476.48 568.023 476.736C567.575 476.992 567.218 477.365 566.951 477.856C566.684 478.347 566.551 478.923 566.551 479.584C566.551 480.256 566.684 480.843 566.951 481.344C567.218 481.835 567.575 482.213 568.023 482.48C568.471 482.736 568.967 482.864 569.511 482.864C570.055 482.864 570.551 482.736 570.999 482.48C571.458 482.213 571.82 481.835 572.087 481.344C572.354 480.843 572.487 480.261 572.487 479.6ZM577.876 476.656C578.132 476.155 578.494 475.765 578.964 475.488C579.444 475.211 580.025 475.072 580.708 475.072V476.576H580.324C578.692 476.576 577.876 477.461 577.876 479.232V484H576.42V475.232H577.876V476.656ZM583.14 473.808C582.863 473.808 582.628 473.712 582.436 473.52C582.244 473.328 582.148 473.093 582.148 472.816C582.148 472.539 582.244 472.304 582.436 472.112C582.628 471.92 582.863 471.824 583.14 471.824C583.407 471.824 583.631 471.92 583.812 472.112C584.004 472.304 584.1 472.539 584.1 472.816C584.1 473.093 584.004 473.328 583.812 473.52C583.631 473.712 583.407 473.808 583.14 473.808ZM583.844 475.232V484H582.388V475.232H583.844ZM585.782 479.584C585.782 478.688 585.963 477.904 586.326 477.232C586.688 476.549 587.184 476.021 587.814 475.648C588.454 475.275 589.163 475.088 589.942 475.088C590.71 475.088 591.376 475.253 591.942 475.584C592.507 475.915 592.928 476.331 593.206 476.832V475.232H594.678V484H593.206V482.368C592.918 482.88 592.486 483.307 591.91 483.648C591.344 483.979 590.683 484.144 589.926 484.144C589.147 484.144 588.443 483.952 587.814 483.568C587.184 483.184 586.688 482.645 586.326 481.952C585.963 481.259 585.782 480.469 585.782 479.584ZM593.206 479.6C593.206 478.939 593.072 478.363 592.806 477.872C592.539 477.381 592.176 477.008 591.718 476.752C591.27 476.485 590.774 476.352 590.23 476.352C589.686 476.352 589.19 476.48 588.742 476.736C588.294 476.992 587.936 477.365 587.67 477.856C587.403 478.347 587.27 478.923 587.27 479.584C587.27 480.256 587.403 480.843 587.67 481.344C587.936 481.835 588.294 482.213 588.742 482.48C589.19 482.736 589.686 482.864 590.23 482.864C590.774 482.864 591.27 482.736 591.718 482.48C592.176 482.213 592.539 481.835 592.806 481.344C593.072 480.843 593.206 480.261 593.206 479.6Z" fill="#C6C6C6"/>
<rect x="424" y="659.066" width="432" height="46" rx="4" fill="#FBA931"/>
<path d="M598.528 682.434C598.528 681.325 598.768 680.338 599.248 679.474C599.728 678.599 600.395 677.922 601.248 677.442C602.112 676.951 603.088 676.706 604.176 676.706C605.509 676.706 606.651 677.058 607.6 677.762C608.549 678.466 609.184 679.426 609.504 680.642H606.496C606.272 680.173 605.952 679.815 605.536 679.57C605.131 679.325 604.667 679.202 604.144 679.202C603.301 679.202 602.619 679.495 602.096 680.082C601.573 680.669 601.312 681.453 601.312 682.434C601.312 683.415 601.573 684.199 602.096 684.786C602.619 685.373 603.301 685.666 604.144 685.666C604.667 685.666 605.131 685.543 605.536 685.298C605.952 685.053 606.272 684.695 606.496 684.226H609.504C609.184 685.442 608.549 686.402 607.6 687.106C606.651 687.799 605.509 688.146 604.176 688.146C603.088 688.146 602.112 687.906 601.248 687.426C600.395 686.935 599.728 686.258 599.248 685.394C598.768 684.53 598.528 683.543 598.528 682.434ZM610.636 683.586C610.636 682.669 610.806 681.863 611.148 681.17C611.5 680.477 611.974 679.943 612.572 679.57C613.169 679.197 613.836 679.01 614.572 679.01C615.201 679.01 615.75 679.138 616.22 679.394C616.7 679.65 617.068 679.986 617.324 680.402V679.138H620.06V688.066H617.324V686.802C617.057 687.218 616.684 687.554 616.204 687.81C615.734 688.066 615.185 688.194 614.556 688.194C613.83 688.194 613.169 688.007 612.572 687.634C611.974 687.25 611.5 686.711 611.148 686.018C610.806 685.314 610.636 684.503 610.636 683.586ZM617.324 683.602C617.324 682.919 617.132 682.381 616.748 681.986C616.374 681.591 615.916 681.394 615.372 681.394C614.828 681.394 614.364 681.591 613.98 681.986C613.606 682.37 613.42 682.903 613.42 683.586C613.42 684.269 613.606 684.813 613.98 685.218C614.364 685.613 614.828 685.81 615.372 685.81C615.916 685.81 616.374 685.613 616.748 685.218C617.132 684.823 617.324 684.285 617.324 683.602ZM621.495 683.586C621.495 682.669 621.666 681.863 622.007 681.17C622.359 680.477 622.834 679.943 623.431 679.57C624.028 679.197 624.695 679.01 625.431 679.01C626.018 679.01 626.551 679.133 627.031 679.378C627.522 679.623 627.906 679.954 628.183 680.37V676.226H630.919V688.066H628.183V686.786C627.927 687.213 627.559 687.554 627.079 687.81C626.61 688.066 626.06 688.194 625.431 688.194C624.695 688.194 624.028 688.007 623.431 687.634C622.834 687.25 622.359 686.711 622.007 686.018C621.666 685.314 621.495 684.503 621.495 683.586ZM628.183 683.602C628.183 682.919 627.991 682.381 627.607 681.986C627.234 681.591 626.775 681.394 626.231 681.394C625.687 681.394 625.223 681.591 624.839 681.986C624.466 682.37 624.279 682.903 624.279 683.586C624.279 684.269 624.466 684.813 624.839 685.218C625.223 685.613 625.687 685.81 626.231 685.81C626.775 685.81 627.234 685.613 627.607 685.218C627.991 684.823 628.183 684.285 628.183 683.602ZM632.354 683.586C632.354 682.669 632.525 681.863 632.866 681.17C633.218 680.477 633.693 679.943 634.29 679.57C634.888 679.197 635.554 679.01 636.29 679.01C636.92 679.01 637.469 679.138 637.938 679.394C638.418 679.65 638.786 679.986 639.042 680.402V679.138H641.778V688.066H639.042V686.802C638.776 687.218 638.402 687.554 637.922 687.81C637.453 688.066 636.904 688.194 636.274 688.194C635.549 688.194 634.888 688.007 634.29 687.634C633.693 687.25 633.218 686.711 632.866 686.018C632.525 685.314 632.354 684.503 632.354 683.586ZM639.042 683.602C639.042 682.919 638.85 682.381 638.466 681.986C638.093 681.591 637.634 681.394 637.09 681.394C636.546 681.394 636.082 681.591 635.698 681.986C635.325 682.37 635.138 682.903 635.138 683.586C635.138 684.269 635.325 684.813 635.698 685.218C636.082 685.613 636.546 685.81 637.09 685.81C637.634 685.81 638.093 685.613 638.466 685.218C638.85 684.823 639.042 684.285 639.042 683.602ZM647.39 688.194C646.611 688.194 645.918 688.061 645.31 687.794C644.702 687.527 644.222 687.165 643.87 686.706C643.518 686.237 643.32 685.714 643.278 685.138H645.982C646.014 685.447 646.158 685.698 646.414 685.89C646.67 686.082 646.984 686.178 647.358 686.178C647.699 686.178 647.96 686.114 648.142 685.986C648.334 685.847 648.43 685.671 648.43 685.458C648.43 685.202 648.296 685.015 648.03 684.898C647.763 684.77 647.331 684.631 646.734 684.482C646.094 684.333 645.56 684.178 645.134 684.018C644.707 683.847 644.339 683.586 644.03 683.234C643.72 682.871 643.566 682.386 643.566 681.778C643.566 681.266 643.704 680.802 643.982 680.386C644.27 679.959 644.686 679.623 645.23 679.378C645.784 679.133 646.44 679.01 647.198 679.01C648.318 679.01 649.198 679.287 649.838 679.842C650.488 680.397 650.862 681.133 650.958 682.05H648.43C648.387 681.741 648.248 681.495 648.014 681.314C647.79 681.133 647.491 681.042 647.118 681.042C646.798 681.042 646.552 681.106 646.382 681.234C646.211 681.351 646.126 681.517 646.126 681.73C646.126 681.986 646.259 682.178 646.526 682.306C646.803 682.434 647.23 682.562 647.806 682.69C648.467 682.861 649.006 683.031 649.422 683.202C649.838 683.362 650.2 683.629 650.51 684.002C650.83 684.365 650.995 684.855 651.006 685.474C651.006 685.997 650.856 686.466 650.558 686.882C650.27 687.287 649.848 687.607 649.294 687.842C648.75 688.077 648.115 688.194 647.39 688.194ZM657.656 685.746V688.066H656.264C655.272 688.066 654.498 687.826 653.944 687.346C653.389 686.855 653.112 686.061 653.112 684.962V681.41H652.024V679.138H653.112V676.962H655.848V679.138H657.64V681.41H655.848V684.994C655.848 685.261 655.912 685.453 656.04 685.57C656.168 685.687 656.381 685.746 656.68 685.746H657.656ZM661.916 680.626C662.236 680.135 662.636 679.751 663.116 679.474C663.596 679.186 664.129 679.042 664.716 679.042V681.938H663.964C663.281 681.938 662.769 682.087 662.428 682.386C662.086 682.674 661.916 683.186 661.916 683.922V688.066H659.18V679.138H661.916V680.626ZM665.479 683.586C665.479 682.669 665.65 681.863 665.991 681.17C666.343 680.477 666.818 679.943 667.415 679.57C668.013 679.197 668.679 679.01 669.415 679.01C670.045 679.01 670.594 679.138 671.063 679.394C671.543 679.65 671.911 679.986 672.167 680.402V679.138H674.903V688.066H672.167V686.802C671.901 687.218 671.527 687.554 671.047 687.81C670.578 688.066 670.029 688.194 669.399 688.194C668.674 688.194 668.013 688.007 667.415 687.634C666.818 687.25 666.343 686.711 665.991 686.018C665.65 685.314 665.479 684.503 665.479 683.586ZM672.167 683.602C672.167 682.919 671.975 682.381 671.591 681.986C671.218 681.591 670.759 681.394 670.215 681.394C669.671 681.394 669.207 681.591 668.823 681.986C668.45 682.37 668.263 682.903 668.263 683.586C668.263 684.269 668.45 684.813 668.823 685.218C669.207 685.613 669.671 685.81 670.215 685.81C670.759 685.81 671.218 685.613 671.591 685.218C671.975 684.823 672.167 684.285 672.167 683.602ZM679.619 680.626C679.939 680.135 680.339 679.751 680.819 679.474C681.299 679.186 681.832 679.042 682.419 679.042V681.938H681.667C680.984 681.938 680.472 682.087 680.131 682.386C679.789 682.674 679.619 683.186 679.619 683.922V688.066H676.883V679.138H679.619V680.626Z" fill="#12131B"/>
<rect x="424" y="591.066" width="432" height="46" rx="4" fill="#1B1C29"/>
<path d="M444.192 611.346L444.768 612.386L442.544 613.314L444.784 614.226L444.176 615.298L442.24 613.89L442.496 616.306H441.296L441.536 613.89L439.6 615.314L438.976 614.226L441.2 613.298L438.976 612.402L439.568 611.33L441.552 612.754L441.296 610.322H442.512L442.24 612.754L444.192 611.346ZM451.973 611.346L452.549 612.386L450.325 613.314L452.565 614.226L451.957 615.298L450.021 613.89L450.277 616.306H449.077L449.317 613.89L447.381 615.314L446.757 614.226L448.981 613.298L446.757 612.402L447.349 611.33L449.333 612.754L449.077 610.322H450.293L450.021 612.754L451.973 611.346ZM459.755 611.346L460.331 612.386L458.107 613.314L460.347 614.226L459.739 615.298L457.803 613.89L458.059 616.306H456.859L457.099 613.89L455.163 615.314L454.539 614.226L456.763 613.298L454.539 612.402L455.131 611.33L457.115 612.754L456.859 610.322H458.075L457.803 612.754L459.755 611.346ZM467.536 611.346L468.112 612.386L465.888 613.314L468.128 614.226L467.52 615.298L465.584 613.89L465.84 616.306H464.64L464.88 613.89L462.944 615.314L462.32 614.226L464.544 613.298L462.32 612.402L462.912 611.33L464.896 612.754L464.64 610.322H465.856L465.584 612.754L467.536 611.346ZM475.317 611.346L475.893 612.386L473.669 613.314L475.909 614.226L475.301 615.298L473.365 613.89L473.621 616.306H472.421L472.661 613.89L470.725 615.314L470.101 614.226L472.325 613.298L470.101 612.402L470.693 611.33L472.677 612.754L472.421 610.322H473.637L473.365 612.754L475.317 611.346ZM483.098 611.346L483.674 612.386L481.45 613.314L483.69 614.226L483.082 615.298L481.146 613.89L481.402 616.306H480.202L480.442 613.89L478.506 615.314L477.882 614.226L480.106 613.298L477.882 612.402L478.474 611.33L480.458 612.754L480.202 610.322H481.418L481.146 612.754L483.098 611.346ZM490.88 611.346L491.456 612.386L489.232 613.314L491.472 614.226L490.864 615.298L488.928 613.89L489.184 616.306H487.984L488.224 613.89L486.288 615.314L485.664 614.226L487.888 613.298L485.664 612.402L486.256 611.33L488.24 612.754L487.984 610.322H489.2L488.928 612.754L490.88 611.346ZM498.661 611.346L499.237 612.386L497.013 613.314L499.253 614.226L498.645 615.298L496.709 613.89L496.965 616.306H495.765L496.005 613.89L494.069 615.314L493.445 614.226L495.669 613.298L493.445 612.402L494.037 611.33L496.021 612.754L495.765 610.322H496.981L496.709 612.754L498.661 611.346ZM506.442 611.346L507.018 612.386L504.794 613.314L507.034 614.226L506.426 615.298L504.49 613.89L504.746 616.306H503.546L503.786 613.89L501.85 615.314L501.226 614.226L503.45 613.298L501.226 612.402L501.818 611.33L503.802 612.754L503.546 610.322H504.762L504.49 612.754L506.442 611.346ZM514.223 611.346L514.799 612.386L512.575 613.314L514.815 614.226L514.207 615.298L512.271 613.89L512.527 616.306H511.327L511.567 613.89L509.631 615.314L509.007 614.226L511.231 613.298L509.007 612.402L509.599 611.33L511.583 612.754L511.327 610.322H512.543L512.271 612.754L514.223 611.346ZM522.005 611.346L522.581 612.386L520.357 613.314L522.597 614.226L521.989 615.298L520.053 613.89L520.309 616.306H519.109L519.349 613.89L517.413 615.314L516.789 614.226L519.013 613.298L516.789 612.402L517.381 611.33L519.365 612.754L519.109 610.322H520.325L520.053 612.754L522.005 611.346ZM529.786 611.346L530.362 612.386L528.138 613.314L530.378 614.226L529.77 615.298L527.834 613.89L528.09 616.306H526.89L527.13 613.89L525.194 615.314L524.57 614.226L526.794 613.298L524.57 612.402L525.162 611.33L527.146 612.754L526.89 610.322H528.106L527.834 612.754L529.786 611.346Z" fill="#C6C6C6"/>
<path d="M552.992 724.308V731.518C552.992 732.321 552.745 732.965 552.25 733.45C551.755 733.926 551.102 734.164 550.29 734.164C549.469 734.164 548.811 733.921 548.316 733.436C547.821 732.941 547.574 732.269 547.574 731.42H548.848C548.857 731.896 548.979 732.283 549.212 732.582C549.455 732.881 549.814 733.03 550.29 733.03C550.766 733.03 551.121 732.89 551.354 732.61C551.587 732.321 551.704 731.957 551.704 731.518V724.308H552.992ZM555.026 730.202C555.026 729.418 555.184 728.732 555.502 728.144C555.819 727.547 556.253 727.085 556.804 726.758C557.364 726.431 557.984 726.268 558.666 726.268C559.338 726.268 559.921 726.413 560.416 726.702C560.91 726.991 561.279 727.355 561.522 727.794V726.394H562.81V734.066H561.522V732.638C561.27 733.086 560.892 733.459 560.388 733.758C559.893 734.047 559.314 734.192 558.652 734.192C557.97 734.192 557.354 734.024 556.804 733.688C556.253 733.352 555.819 732.881 555.502 732.274C555.184 731.667 555.026 730.977 555.026 730.202ZM561.522 730.216C561.522 729.637 561.405 729.133 561.172 728.704C560.938 728.275 560.621 727.948 560.22 727.724C559.828 727.491 559.394 727.374 558.918 727.374C558.442 727.374 558.008 727.486 557.616 727.71C557.224 727.934 556.911 728.261 556.678 728.69C556.444 729.119 556.328 729.623 556.328 730.202C556.328 730.79 556.444 731.303 556.678 731.742C556.911 732.171 557.224 732.503 557.616 732.736C558.008 732.96 558.442 733.072 558.918 733.072C559.394 733.072 559.828 732.96 560.22 732.736C560.621 732.503 560.938 732.171 561.172 731.742C561.405 731.303 561.522 730.795 561.522 730.216ZM560.528 724.224L557.546 725.82V724.868L560.528 723.118V724.224ZM570.249 727.444V731.966C570.249 732.339 570.329 732.605 570.487 732.764C570.646 732.913 570.921 732.988 571.313 732.988H572.251V734.066H571.103C570.394 734.066 569.862 733.903 569.507 733.576C569.153 733.249 568.975 732.713 568.975 731.966V727.444H567.981V726.394H568.975V724.462H570.249V726.394H572.251V727.444H570.249ZM580.795 729.936C580.795 730.179 580.781 730.435 580.753 730.706H574.621C574.667 731.462 574.924 732.055 575.391 732.484C575.867 732.904 576.441 733.114 577.113 733.114C577.663 733.114 578.121 732.988 578.485 732.736C578.858 732.475 579.119 732.129 579.269 731.7H580.641C580.435 732.437 580.025 733.039 579.409 733.506C578.793 733.963 578.027 734.192 577.113 734.192C576.385 734.192 575.731 734.029 575.153 733.702C574.583 733.375 574.135 732.913 573.809 732.316C573.482 731.709 573.319 731.009 573.319 730.216C573.319 729.423 573.477 728.727 573.795 728.13C574.112 727.533 574.555 727.075 575.125 726.758C575.703 726.431 576.366 726.268 577.113 726.268C577.841 726.268 578.485 726.427 579.045 726.744C579.605 727.061 580.034 727.5 580.333 728.06C580.641 728.611 580.795 729.236 580.795 729.936ZM579.479 729.67C579.479 729.185 579.371 728.769 579.157 728.424C578.942 728.069 578.648 727.803 578.275 727.626C577.911 727.439 577.505 727.346 577.057 727.346C576.413 727.346 575.862 727.551 575.405 727.962C574.957 728.373 574.7 728.942 574.635 729.67H579.479ZM586.214 726.254C587.148 726.254 587.904 726.539 588.482 727.108C589.061 727.668 589.35 728.48 589.35 729.544V734.066H588.09V729.726C588.09 728.961 587.899 728.377 587.516 727.976C587.134 727.565 586.611 727.36 585.948 727.36C585.276 727.36 584.74 727.57 584.338 727.99C583.946 728.41 583.75 729.021 583.75 729.824V734.066H582.476V726.394H583.75V727.486C584.002 727.094 584.343 726.791 584.772 726.576C585.211 726.361 585.692 726.254 586.214 726.254ZM595.24 726.254C595.818 726.254 596.341 726.38 596.808 726.632C597.274 726.875 597.638 727.243 597.9 727.738C598.17 728.233 598.306 728.835 598.306 729.544V734.066H597.046V729.726C597.046 728.961 596.854 728.377 596.472 727.976C596.089 727.565 595.566 727.36 594.904 727.36C594.232 727.36 593.695 727.57 593.294 727.99C592.902 728.41 592.706 729.021 592.706 729.824V734.066H591.432V723.706H592.706V727.486C592.958 727.094 593.303 726.791 593.742 726.576C594.19 726.361 594.689 726.254 595.24 726.254ZM603.733 734.192C603.014 734.192 602.361 734.029 601.773 733.702C601.194 733.375 600.737 732.913 600.401 732.316C600.074 731.709 599.911 731.009 599.911 730.216C599.911 729.432 600.079 728.741 600.415 728.144C600.76 727.537 601.227 727.075 601.815 726.758C602.403 726.431 603.061 726.268 603.789 726.268C604.517 726.268 605.175 726.431 605.763 726.758C606.351 727.075 606.813 727.533 607.149 728.13C607.494 728.727 607.667 729.423 607.667 730.216C607.667 731.009 607.489 731.709 607.135 732.316C606.789 732.913 606.318 733.375 605.721 733.702C605.123 734.029 604.461 734.192 603.733 734.192ZM603.733 733.072C604.19 733.072 604.619 732.965 605.021 732.75C605.422 732.535 605.744 732.213 605.987 731.784C606.239 731.355 606.365 730.832 606.365 730.216C606.365 729.6 606.243 729.077 606.001 728.648C605.758 728.219 605.441 727.901 605.049 727.696C604.657 727.481 604.232 727.374 603.775 727.374C603.308 727.374 602.879 727.481 602.487 727.696C602.104 727.901 601.796 728.219 601.563 728.648C601.329 729.077 601.213 729.6 601.213 730.216C601.213 730.841 601.325 731.369 601.549 731.798C601.782 732.227 602.09 732.549 602.473 732.764C602.855 732.969 603.275 733.072 603.733 733.072ZM612.598 730.216C612.598 729.423 612.757 728.732 613.074 728.144C613.391 727.547 613.83 727.085 614.39 726.758C614.959 726.431 615.608 726.268 616.336 726.268C617.279 726.268 618.053 726.497 618.66 726.954C619.276 727.411 619.682 728.046 619.878 728.858H618.506C618.375 728.391 618.119 728.023 617.736 727.752C617.363 727.481 616.896 727.346 616.336 727.346C615.608 727.346 615.02 727.598 614.572 728.102C614.124 728.597 613.9 729.301 613.9 730.216C613.9 731.14 614.124 731.854 614.572 732.358C615.02 732.862 615.608 733.114 616.336 733.114C616.896 733.114 617.363 732.983 617.736 732.722C618.109 732.461 618.366 732.087 618.506 731.602H619.878C619.673 732.386 619.262 733.016 618.646 733.492C618.03 733.959 617.26 734.192 616.336 734.192C615.608 734.192 614.959 734.029 614.39 733.702C613.83 733.375 613.391 732.913 613.074 732.316C612.757 731.719 612.598 731.019 612.598 730.216ZM624.924 734.192C624.205 734.192 623.552 734.029 622.964 733.702C622.385 733.375 621.928 732.913 621.592 732.316C621.265 731.709 621.102 731.009 621.102 730.216C621.102 729.432 621.27 728.741 621.606 728.144C621.951 727.537 622.418 727.075 623.006 726.758C623.594 726.431 624.252 726.268 624.98 726.268C625.708 726.268 626.366 726.431 626.954 726.758C627.542 727.075 628.004 727.533 628.34 728.13C628.685 728.727 628.858 729.423 628.858 730.216C628.858 731.009 628.681 731.709 628.326 732.316C627.981 732.913 627.509 733.375 626.912 733.702C626.315 734.029 625.652 734.192 624.924 734.192ZM624.924 733.072C625.381 733.072 625.811 732.965 626.212 732.75C626.613 732.535 626.935 732.213 627.178 731.784C627.43 731.355 627.556 730.832 627.556 730.216C627.556 729.6 627.435 729.077 627.192 728.648C626.949 728.219 626.632 727.901 626.24 727.696C625.848 727.481 625.423 727.374 624.966 727.374C624.499 727.374 624.07 727.481 623.678 727.696C623.295 727.901 622.987 728.219 622.754 728.648C622.521 729.077 622.404 729.6 622.404 730.216C622.404 730.841 622.516 731.369 622.74 731.798C622.973 732.227 623.281 732.549 623.664 732.764C624.047 732.969 624.467 733.072 624.924 733.072ZM634.271 726.254C635.204 726.254 635.96 726.539 636.539 727.108C637.118 727.668 637.407 728.48 637.407 729.544V734.066H636.147V729.726C636.147 728.961 635.956 728.377 635.573 727.976C635.19 727.565 634.668 727.36 634.005 727.36C633.333 727.36 632.796 727.57 632.395 727.99C632.003 728.41 631.807 729.021 631.807 729.824V734.066H630.533V726.394H631.807V727.486C632.059 727.094 632.4 726.791 632.829 726.576C633.268 726.361 633.748 726.254 634.271 726.254ZM641.042 727.444V731.966C641.042 732.339 641.121 732.605 641.28 732.764C641.439 732.913 641.714 732.988 642.106 732.988H643.044V734.066H641.896C641.187 734.066 640.655 733.903 640.3 733.576C639.945 733.249 639.768 732.713 639.768 731.966V727.444H638.774V726.394H639.768V724.462H641.042V726.394H643.044V727.444H641.042ZM644.112 730.202C644.112 729.418 644.27 728.732 644.588 728.144C644.905 727.547 645.339 727.085 645.89 726.758C646.45 726.431 647.07 726.268 647.752 726.268C648.424 726.268 649.007 726.413 649.502 726.702C649.996 726.991 650.365 727.355 650.608 727.794V726.394H651.896V734.066H650.608V732.638C650.356 733.086 649.978 733.459 649.474 733.758C648.979 734.047 648.4 734.192 647.738 734.192C647.056 734.192 646.44 734.024 645.89 733.688C645.339 733.352 644.905 732.881 644.588 732.274C644.27 731.667 644.112 730.977 644.112 730.202ZM650.608 730.216C650.608 729.637 650.491 729.133 650.258 728.704C650.024 728.275 649.707 727.948 649.306 727.724C648.914 727.491 648.48 727.374 648.004 727.374C647.528 727.374 647.094 727.486 646.702 727.71C646.31 727.934 645.997 728.261 645.764 728.69C645.53 729.119 645.414 729.623 645.414 730.202C645.414 730.79 645.53 731.303 645.764 731.742C645.997 732.171 646.31 732.503 646.702 732.736C647.094 732.96 647.528 733.072 648.004 733.072C648.48 733.072 648.914 732.96 649.306 732.736C649.707 732.503 650.024 732.171 650.258 731.742C650.491 731.303 650.608 730.795 650.608 730.216ZM654.455 734.15C654.212 734.15 654.007 734.066 653.839 733.898C653.671 733.73 653.587 733.525 653.587 733.282C653.587 733.039 653.671 732.834 653.839 732.666C654.007 732.498 654.212 732.414 654.455 732.414C654.688 732.414 654.884 732.498 655.043 732.666C655.211 732.834 655.295 733.039 655.295 733.282C655.295 733.525 655.211 733.73 655.043 733.898C654.884 734.066 654.688 734.15 654.455 734.15Z" fill="white"/>
<path d="M666.237 724.308V725.344H661.995V728.634H665.439V729.67H661.995V734.066H660.721V724.308H666.237ZM667.299 730.202C667.299 729.418 667.458 728.732 667.775 728.144C668.093 727.547 668.527 727.085 669.077 726.758C669.637 726.431 670.258 726.268 670.939 726.268C671.611 726.268 672.195 726.413 672.689 726.702C673.184 726.991 673.553 727.355 673.795 727.794V726.394H675.083V734.066H673.795V732.638C673.543 733.086 673.165 733.459 672.661 733.758C672.167 734.047 671.588 734.192 670.925 734.192C670.244 734.192 669.628 734.024 669.077 733.688C668.527 733.352 668.093 732.881 667.775 732.274C667.458 731.667 667.299 730.977 667.299 730.202ZM673.795 730.216C673.795 729.637 673.679 729.133 673.445 728.704C673.212 728.275 672.895 727.948 672.493 727.724C672.101 727.491 671.667 727.374 671.191 727.374C670.715 727.374 670.281 727.486 669.889 727.71C669.497 727.934 669.185 728.261 668.951 728.69C668.718 729.119 668.601 729.623 668.601 730.202C668.601 730.79 668.718 731.303 668.951 731.742C669.185 732.171 669.497 732.503 669.889 732.736C670.281 732.96 670.715 733.072 671.191 733.072C671.667 733.072 672.101 732.96 672.493 732.736C672.895 732.503 673.212 732.171 673.445 731.742C673.679 731.303 673.795 730.795 673.795 730.216ZM680.498 733.114C681.058 733.114 681.525 732.983 681.898 732.722C682.272 732.461 682.528 732.087 682.668 731.602H684.04C683.854 732.33 683.485 732.927 682.934 733.394C682.393 733.851 681.712 734.113 680.89 734.178V734.878C681.441 734.869 681.88 734.985 682.206 735.228C682.533 735.471 682.696 735.816 682.696 736.264C682.696 736.703 682.538 737.053 682.22 737.314C681.903 737.575 681.492 737.706 680.988 737.706H679.378V736.88H680.736C681.044 736.88 681.268 736.833 681.408 736.74C681.558 736.647 681.632 736.488 681.632 736.264C681.632 736.049 681.558 735.895 681.408 735.802C681.268 735.709 681.044 735.662 680.736 735.662H680.036V734.164C679.392 734.099 678.823 733.898 678.328 733.562C677.834 733.217 677.446 732.759 677.166 732.19C676.896 731.611 676.76 730.953 676.76 730.216C676.76 729.423 676.919 728.732 677.236 728.144C677.554 727.547 677.992 727.085 678.552 726.758C679.122 726.431 679.77 726.268 680.498 726.268C681.441 726.268 682.216 726.497 682.822 726.954C683.438 727.411 683.844 728.046 684.04 728.858H682.668C682.538 728.391 682.281 728.023 681.898 727.752C681.525 727.481 681.058 727.346 680.498 727.346C679.77 727.346 679.182 727.598 678.734 728.102C678.286 728.597 678.062 729.301 678.062 730.216C678.062 731.14 678.286 731.854 678.734 732.358C679.182 732.862 679.77 733.114 680.498 733.114ZM685.264 730.202C685.264 729.418 685.423 728.732 685.74 728.144C686.057 727.547 686.491 727.085 687.042 726.758C687.602 726.431 688.223 726.268 688.904 726.268C689.576 726.268 690.159 726.413 690.654 726.702C691.149 726.991 691.517 727.355 691.76 727.794V726.394H693.048V734.066H691.76V732.638C691.508 733.086 691.13 733.459 690.626 733.758C690.131 734.047 689.553 734.192 688.89 734.192C688.209 734.192 687.593 734.024 687.042 733.688C686.491 733.352 686.057 732.881 685.74 732.274C685.423 731.667 685.264 730.977 685.264 730.202ZM691.76 730.216C691.76 729.637 691.643 729.133 691.41 728.704C691.177 728.275 690.859 727.948 690.458 727.724C690.066 727.491 689.632 727.374 689.156 727.374C688.68 727.374 688.246 727.486 687.854 727.71C687.462 727.934 687.149 728.261 686.916 728.69C686.683 729.119 686.566 729.623 686.566 730.202C686.566 730.79 686.683 731.303 686.916 731.742C687.149 732.171 687.462 732.503 687.854 732.736C688.246 732.96 688.68 733.072 689.156 733.072C689.632 733.072 690.066 732.96 690.458 732.736C690.859 732.503 691.177 732.171 691.41 731.742C691.643 731.303 691.76 730.795 691.76 730.216ZM700.207 723.706V734.066H698.933V723.706H700.207ZM705.725 734.192C705.006 734.192 704.353 734.029 703.765 733.702C703.186 733.375 702.729 732.913 702.393 732.316C702.066 731.709 701.903 731.009 701.903 730.216C701.903 729.432 702.071 728.741 702.407 728.144C702.752 727.537 703.219 727.075 703.807 726.758C704.395 726.431 705.053 726.268 705.781 726.268C706.509 726.268 707.167 726.431 707.755 726.758C708.343 727.075 708.805 727.533 709.141 728.13C709.486 728.727 709.659 729.423 709.659 730.216C709.659 731.009 709.481 731.709 709.127 732.316C708.781 732.913 708.31 733.375 707.713 733.702C707.115 734.029 706.453 734.192 705.725 734.192ZM705.725 733.072C706.182 733.072 706.611 732.965 707.013 732.75C707.414 732.535 707.736 732.213 707.979 731.784C708.231 731.355 708.357 730.832 708.357 730.216C708.357 729.6 708.235 729.077 707.993 728.648C707.75 728.219 707.433 727.901 707.041 727.696C706.649 727.481 706.224 727.374 705.767 727.374C705.3 727.374 704.871 727.481 704.479 727.696C704.096 727.901 703.788 728.219 703.555 728.648C703.321 729.077 703.205 729.6 703.205 730.216C703.205 730.841 703.317 731.369 703.541 731.798C703.774 732.227 704.082 732.549 704.465 732.764C704.847 732.969 705.267 733.072 705.725 733.072ZM714.498 726.268C715.161 726.268 715.739 726.413 716.234 726.702C716.738 726.991 717.111 727.355 717.354 727.794V726.394H718.642V734.234C718.642 734.934 718.493 735.555 718.194 736.096C717.895 736.647 717.466 737.076 716.906 737.384C716.355 737.692 715.711 737.846 714.974 737.846C713.966 737.846 713.126 737.608 712.454 737.132C711.782 736.656 711.385 736.007 711.264 735.186H712.524C712.664 735.653 712.953 736.026 713.392 736.306C713.831 736.595 714.358 736.74 714.974 736.74C715.674 736.74 716.243 736.521 716.682 736.082C717.13 735.643 717.354 735.027 717.354 734.234V732.624C717.102 733.072 716.729 733.445 716.234 733.744C715.739 734.043 715.161 734.192 714.498 734.192C713.817 734.192 713.196 734.024 712.636 733.688C712.085 733.352 711.651 732.881 711.334 732.274C711.017 731.667 710.858 730.977 710.858 730.202C710.858 729.418 711.017 728.732 711.334 728.144C711.651 727.547 712.085 727.085 712.636 726.758C713.196 726.431 713.817 726.268 714.498 726.268ZM717.354 730.216C717.354 729.637 717.237 729.133 717.004 728.704C716.771 728.275 716.453 727.948 716.052 727.724C715.66 727.491 715.226 727.374 714.75 727.374C714.274 727.374 713.84 727.486 713.448 727.71C713.056 727.934 712.743 728.261 712.51 728.69C712.277 729.119 712.16 729.623 712.16 730.202C712.16 730.79 712.277 731.303 712.51 731.742C712.743 732.171 713.056 732.503 713.448 732.736C713.84 732.96 714.274 733.072 714.75 733.072C715.226 733.072 715.66 732.96 716.052 732.736C716.453 732.503 716.771 732.171 717.004 731.742C717.237 731.303 717.354 730.795 717.354 730.216ZM721.453 725.148C721.21 725.148 721.005 725.064 720.837 724.896C720.669 724.728 720.585 724.523 720.585 724.28C720.585 724.037 720.669 723.832 720.837 723.664C721.005 723.496 721.21 723.412 721.453 723.412C721.686 723.412 721.882 723.496 722.041 723.664C722.209 723.832 722.293 724.037 722.293 724.28C722.293 724.523 722.209 724.728 722.041 724.896C721.882 725.064 721.686 725.148 721.453 725.148ZM722.069 726.394V734.066H720.795V726.394H722.069ZM727.978 726.254C728.911 726.254 729.667 726.539 730.246 727.108C730.825 727.668 731.114 728.48 731.114 729.544V734.066H729.854V729.726C729.854 728.961 729.663 728.377 729.28 727.976C728.897 727.565 728.375 727.36 727.712 727.36C727.04 727.36 726.503 727.57 726.102 727.99C725.71 728.41 725.514 729.021 725.514 729.824V734.066H724.24V726.394H725.514V727.486C725.766 727.094 726.107 726.791 726.536 726.576C726.975 726.361 727.455 726.254 727.978 726.254Z" fill="#C6C6C6"/>
<defs>
<linearGradient id="paint0_linear_1_150" x1="640" y1="308.066" x2="640" y2="400" gradientUnits="userSpaceOnUse">
<stop stop-color="#F1881D"/>
<stop offset="1" stop-color="#FBC231"/>
</linearGradient>
</defs>
</svg>
